<svg width="168" height="77" viewBox="0 0 168 77" fill="none" xmlns="http://www.w3.org/2000/svg">
<path d="M76.1149 53.9884H14.2349L15.5999 46.7961H77.4799L76.1149 53.9884Z" fill="#72BE44"/>
<path d="M20.735 48.6923H23.4V52.3538H22.555V49.3461H21.45C21.45 49.8038 21.385 50.4577 21.385 50.9154C21.255 51.8961 21.06 52.4846 20.345 52.4846C20.15 52.4846 20.02 52.4192 20.02 52.4192V51.7C20.02 51.7 20.085 51.7 20.215 51.7C20.475 51.7 20.605 51.3077 20.67 50.7846C20.67 50.1308 20.735 48.6923 20.735 48.6923ZM29.25 50.4577C29.25 51.6346 28.47 52.4192 27.43 52.4192C26.455 52.4192 25.805 51.8308 25.675 50.9154V50.7846H25.22V52.3538H24.375V48.6923H25.22V50.1961H25.675C25.805 49.2154 26.52 48.6269 27.43 48.6269C28.47 48.6269 29.25 49.3461 29.25 50.4577ZM28.405 50.5231C28.405 49.7384 28.08 49.2808 27.43 49.2808C26.845 49.2808 26.52 49.7384 26.52 50.5231V50.5884C26.52 51.3731 26.845 51.8308 27.43 51.8308C28.015 51.8308 28.405 51.3077 28.405 50.5231ZM33.02 51.7654H33.54V53.2692H32.825V52.3538H30.355V53.2692H29.64V51.7654H29.9C30.16 51.7 30.225 51.3077 30.29 50.7846C30.355 50.1308 30.42 49.2154 30.42 48.6923H33.085V51.7654H33.02ZM32.175 49.2808H31.07C31.07 49.7384 31.005 50.3269 31.005 50.7846C30.94 51.1769 30.875 51.5038 30.81 51.7H32.24V49.2808H32.175ZM35.555 48.6923H37.05V52.3538H36.205V50.9808H35.685L34.84 52.3538H33.93L34.905 50.85C34.45 50.7192 34.125 50.4577 34.125 49.8692C34.19 49.0846 34.71 48.6923 35.555 48.6923ZM35.685 49.2808C35.23 49.2808 35.035 49.4769 35.035 49.8692C35.035 50.2615 35.23 50.3923 35.685 50.3923H36.205V49.2808H35.685V49.2808ZM40.105 50.9808L39.13 48.6923H37.96V52.3538H38.675V49.5423L39.78 52.3538H40.04L41.21 49.5423V52.3538H42.055V48.6923H40.95L40.105 50.9808ZM47.775 51.2423C47.775 51.9615 47.255 52.3538 46.41 52.3538H44.785V48.6923H46.28C47.06 48.6923 47.645 48.9538 47.645 49.6077C47.645 50 47.45 50.3269 46.995 50.3923C47.45 50.5231 47.775 50.7846 47.775 51.2423ZM45.63 50.1961H46.15C46.54 50.1961 46.735 50.0654 46.735 49.7384C46.735 49.4115 46.54 49.2808 46.085 49.2808H45.63V50.1961V50.1961ZM46.865 51.3077C46.865 50.9808 46.67 50.7846 46.215 50.7846H45.565V51.8308H46.15C46.67 51.8308 46.865 51.6346 46.865 51.3077ZM51.805 52.3538H52.65V48.6923H51.805V52.3538ZM51.35 51.1115C51.35 51.9615 50.765 52.3538 49.92 52.3538H48.49V48.6923H49.335V49.9346H49.985C50.765 49.8692 51.35 50.2615 51.35 51.1115ZM50.505 51.1115C50.505 50.7192 50.31 50.5231 49.855 50.5231H49.335V51.7654H49.855C50.31 51.7654 50.505 51.5692 50.505 51.1115ZM53.56 52.3538H54.405V49.3461H56.03V48.6923H53.56V52.3538V52.3538ZM60.125 50.4577C60.125 51.6346 59.345 52.4192 58.24 52.4192C57.135 52.4192 56.355 51.6346 56.355 50.5231V50.4577C56.355 49.3461 57.135 48.5615 58.24 48.5615C59.28 48.6269 60.125 49.3461 60.125 50.4577ZM59.215 50.5231C59.215 49.7384 58.825 49.2808 58.175 49.2808C57.525 49.2808 57.135 49.7384 57.135 50.5231V50.5884C57.135 51.3731 57.525 51.8308 58.175 51.8308C58.89 51.7654 59.215 51.3077 59.215 50.5231ZM63.83 51.7654H64.35V53.2692H63.635V52.3538H61.165V53.2692H60.45V51.7654H60.71C60.97 51.7 61.035 51.3077 61.1 50.7846C61.165 50.1308 61.23 49.2154 61.23 48.6923H63.895V51.7654H63.83ZM62.985 49.2808H61.88C61.88 49.7384 61.815 50.3269 61.815 50.7846C61.75 51.1769 61.685 51.5038 61.62 51.7H63.05V49.2808H62.985ZM67.34 50.1961H65.845V48.6923H65V52.3538H65.845V50.7846H67.34V52.3538H68.185V48.6923H67.34V50.1961ZM72.67 50.4577C72.67 51.6346 71.89 52.4192 70.785 52.4192C69.68 52.4192 68.9 51.7 68.9 50.5884V50.5231C68.9 49.4115 69.68 48.6269 70.785 48.6269C71.89 48.6269 72.67 49.3461 72.67 50.4577ZM71.825 50.5231C71.825 49.7384 71.435 49.2808 70.785 49.2808C70.135 49.2808 69.745 49.7384 69.745 50.5231V50.5884C69.745 51.3731 70.135 51.8308 70.785 51.8308C71.435 51.7654 71.825 51.3077 71.825 50.5231Z" fill="#231F20"/>
<path d="M27.885 30.973C28.21 29.2076 27.69 28.0307 25.61 28.0307H19.175L18.59 31.0384H24.05C24.375 31.0384 24.505 31.2346 24.44 31.6269L23.725 35.2884H20.345L20.865 32.7384L13 36.5307H18.85L18.33 39.0807L23.465 36.5961L22.815 40.1923C22.75 40.5846 22.555 40.7153 22.165 40.7153H16.705L16.12 43.7884H22.555C24.635 43.7884 25.61 42.5461 25.935 40.8461L27.885 30.973ZM38.48 43.7884L41.535 27.9653H34.385C32.305 27.9653 31.265 29.2076 30.94 30.9076L27.3 43.7884H30.81L34.125 31.6269C34.19 31.2346 34.385 31.0384 34.71 31.0384H37.57L35.1 43.7884H38.48ZM49.855 36.4653L49.14 40.323C49.075 40.7153 48.815 40.9115 48.49 40.9115H45.63L46.605 35.8769H49.465C49.855 35.9423 49.985 36.073 49.855 36.4653ZM53.3 36.073C53.625 34.3076 53.105 33.0653 51.025 33.0653H47.19L48.165 28.0307H44.785L41.73 43.8538H48.945C51.09 43.8538 52 42.6115 52.39 40.9115L53.3 36.073ZM64.415 31.0384L62.53 40.7153H58.955L61.425 31.6269C61.49 31.2346 61.685 31.0384 62.01 31.0384H64.415ZM65.91 40.7153L68.38 27.9653H61.62C59.54 27.9653 58.5 29.2076 58.175 30.9076L55.445 40.6499H54.015L53.365 43.723H54.6H65.325H66.3L66.885 40.6499H65.91V40.7153ZM77.61 31.6269L75.985 40.1923C75.855 40.5846 75.66 40.7153 75.335 40.7153H72.93C72.605 40.7153 72.475 40.5846 72.54 40.1923L74.23 31.6269C74.295 31.2346 74.425 31.0384 74.815 31.0384H77.22C77.545 31.0384 77.675 31.2346 77.61 31.6269ZM81.055 30.973C81.38 29.2076 80.86 28.0307 78.78 28.0307H74.49C72.41 28.0307 71.37 29.273 70.98 30.973L69.095 40.8461C68.77 42.6115 69.29 43.7884 71.37 43.7884H75.725C77.87 43.7884 78.845 42.5461 79.17 40.8461L81.055 30.973ZM90.61 31.6269L89.83 35.5499C89.765 36.0076 89.57 36.1384 89.18 36.1384H86.32L87.36 31.0384H90.22C90.545 31.0384 90.675 31.2346 90.61 31.6269ZM94.055 30.973C94.445 29.2076 93.86 28.0307 91.78 28.0307H84.63L81.575 43.8538H84.825L85.735 39.2769H89.635C91.715 39.2769 92.56 38.0346 92.95 36.2692L94.055 30.973ZM100.945 32.1499L100.425 38.2961H98.085L100.75 32.1499H100.945V32.1499ZM103.74 43.7884L104.13 27.9653H99.58L92.04 43.7884H95.68L96.915 40.8461H100.165L99.905 43.7884H103.74ZM116.155 31.0384L114.27 40.7153H110.695L113.165 31.6269C113.23 31.2346 113.425 31.0384 113.75 31.0384H116.155ZM117.65 40.7153L120.12 27.9653H113.36C111.28 27.9653 110.24 29.2076 109.915 30.9076L107.185 40.6499H105.755L105.105 43.723H106.275H117H118.04L118.625 40.6499H117.65V40.7153ZM129.74 31.6269L128.05 40.1923C127.985 40.5846 127.79 40.7153 127.465 40.7153H125.06C124.735 40.7153 124.605 40.5846 124.67 40.1923L126.295 31.6269C126.425 31.2346 126.62 31.0384 126.88 31.0384H129.285C129.61 31.0384 129.805 31.2346 129.74 31.6269ZM130.845 28.0307H126.49C124.41 28.0307 123.435 29.273 123.11 30.973L121.225 40.8461C120.9 42.6115 121.42 43.7884 123.5 43.7884H127.855C129.935 43.7884 130.91 42.5461 131.235 40.8461L133.185 30.973C133.445 29.2076 132.925 28.0307 130.845 28.0307ZM136.435 40.1923L135.72 43.8538H132.405L133.12 40.1923H136.435ZM154.31 41.5653C154.05 42.873 153.335 43.7884 151.775 43.7884H148.98C147.42 43.7884 147.03 42.873 147.29 41.5653L148.98 32.7384H151.385L149.76 41.173C149.695 41.3692 149.76 41.4999 149.89 41.4999H151.645C151.84 41.4999 151.905 41.4346 151.97 41.173L153.595 32.7384H156L154.31 41.5653ZM144.04 35.2884L143.455 38.0346C143.39 38.3615 143.26 38.4269 143 38.4269H141.05L141.765 34.8961H143.78C143.975 34.8961 144.105 35.0269 144.04 35.2884ZM144.82 32.7384H139.815L137.67 43.7884H139.945L140.595 40.5846H141.7L142.22 43.7884H144.755L144.105 40.5192C145.015 40.2576 145.47 39.473 145.665 38.4923L146.38 34.8307C146.705 33.5884 146.315 32.7384 144.82 32.7384Z" fill="#CE1037"/>
</svg>
