<svg width="168" height="77" viewBox="0 0 168 77" fill="none" xmlns="http://www.w3.org/2000/svg">
<g clip-path="url(#clip0)">
<path fill-rule="evenodd" clip-rule="evenodd" d="M53.7151 60.2117L53.5438 60.2123C42.0725 60.2123 32.7734 50.7155 32.7734 39C32.7734 27.2845 42.0725 17.7876 53.5438 17.7876L53.7306 17.7883H115.643C127.036 17.8821 136.227 27.3428 136.227 38.9998C136.227 50.6569 127.02 60.1176 115.627 60.2115H53.7151V60.2117Z" fill="white" stroke="white" stroke-width="9.5"/>
<path fill-rule="evenodd" clip-rule="evenodd" d="M53.7151 60.2117L53.5438 60.2123C42.0725 60.2123 32.7734 50.7155 32.7734 39C32.7734 27.2845 42.0725 17.7876 53.5438 17.7876L53.7306 17.7883H115.643C127.036 17.8821 136.227 27.3428 136.227 38.9998C136.227 50.6569 127.02 60.1176 115.627 60.2115H53.7151V60.2117Z" fill="#ED1C24"/>
<path fill-rule="evenodd" clip-rule="evenodd" d="M103.72 31.1962H104.181V29.4166C104.181 29.2012 104.382 28.6872 104.93 28.6872C105.342 28.6872 105.456 28.9525 105.456 29.3227V31.1963H105.917V29.4166C105.917 28.9745 106.205 28.6872 106.65 28.6872C107.1 28.6872 107.193 28.9691 107.193 29.3227V31.1963H107.654V29.1015C107.654 28.5102 107.279 28.2725 106.721 28.2725C106.363 28.2725 106.032 28.4549 105.842 28.759C105.728 28.4108 105.413 28.2725 105.071 28.2725C104.686 28.2725 104.371 28.4383 104.165 28.759H104.154V28.339H103.72V31.1962H103.72Z" fill="white"/>
<path fill-rule="evenodd" clip-rule="evenodd" d="M110.795 28.3391H110.312L109.547 30.7211H109.536L108.749 28.3391H108.233L109.275 31.1963H109.769L110.795 28.3391Z" fill="white"/>
<path fill-rule="evenodd" clip-rule="evenodd" d="M111.402 31.1961H111.864V28.3389H111.402V31.1961ZM111.864 27.25H111.402V27.8247H111.864V27.25Z" fill="white"/>
<path fill-rule="evenodd" clip-rule="evenodd" d="M115.244 27.25H114.783V28.7201H114.772C114.565 28.383 114.153 28.2724 113.866 28.2724C113.008 28.2724 112.585 28.9523 112.585 29.7591C112.585 30.566 113.014 31.2623 113.877 31.2623C114.262 31.2623 114.62 31.1242 114.772 30.8091H114.783V31.196H115.244V27.25H115.244ZM113.073 29.7923C113.073 29.2342 113.285 28.687 113.914 28.687C114.549 28.687 114.799 29.2065 114.799 29.7703C114.799 30.3063 114.56 30.8481 113.942 30.8481C113.344 30.8481 113.073 30.3286 113.073 29.7923Z" fill="white"/>
<path fill-rule="evenodd" clip-rule="evenodd" d="M118.048 30.2898C117.967 30.6601 117.701 30.8481 117.321 30.8481C116.708 30.8481 116.431 30.4059 116.448 29.9084H118.548C118.575 29.2176 118.271 28.2725 117.278 28.2725C116.513 28.2725 115.959 28.9026 115.959 29.7592C115.986 30.6324 116.409 31.2623 117.305 31.2623C117.934 31.2623 118.379 30.9197 118.504 30.2896H118.048V30.2898ZM116.448 29.494C116.48 29.0574 116.768 28.6872 117.251 28.6872C117.707 28.6872 118.038 29.0463 118.059 29.494H116.448Z" fill="white"/>
<path fill-rule="evenodd" clip-rule="evenodd" d="M119.246 29.7703C119.246 30.6048 119.718 31.2625 120.608 31.2625C121.498 31.2625 121.97 30.6048 121.97 29.7703C121.97 28.9303 121.498 28.2725 120.608 28.2725C119.718 28.2725 119.246 28.9303 119.246 29.7703ZM119.735 29.7703C119.735 29.0739 120.125 28.687 120.608 28.687C121.091 28.687 121.482 29.0739 121.482 29.7703C121.482 30.4613 121.091 30.8481 120.608 30.8481C120.125 30.8481 119.735 30.4613 119.735 29.7703Z" fill="white"/>
<path d="M123.375 30.5828H122.773V31.1961H123.375V30.5828Z" fill="white"/>
<path fill-rule="evenodd" clip-rule="evenodd" d="M124.319 31.196H124.78V29.9249C124.78 29.2009 125.051 28.7698 125.795 28.7698V28.2723C125.296 28.2558 124.986 28.4824 124.764 28.9411H124.753V28.3387H124.319V31.196Z" fill="white"/>
<path fill-rule="evenodd" clip-rule="evenodd" d="M128.784 28.3391H128.322V29.9528C128.322 30.4669 128.051 30.8483 127.492 30.8483C127.139 30.8483 126.922 30.6216 126.922 30.2734V28.3391H126.461V30.2182C126.461 30.8317 126.689 31.2626 127.427 31.2626C127.829 31.2626 128.143 31.0968 128.339 30.7431H128.349V31.1963H128.784V28.3391V28.3391Z" fill="white"/>
<path d="M70.9584 27.1827H71.227L71.639 27.8457H71.8887L71.4594 27.1657C71.6919 27.1478 71.8529 27.0224 71.8529 26.7536C71.8529 26.4493 71.6744 26.3064 71.3166 26.3064H70.7266V27.8457H70.9586V27.1827H70.9584ZM70.9584 26.5031H71.2806C71.4418 26.5031 71.6206 26.5389 71.6206 26.736C71.6206 26.9685 71.4416 26.9864 71.2448 26.9864H70.9582V26.5031H70.9584Z" fill="white"/>
<path d="M71.2447 28.4366C71.9598 28.4366 72.5863 27.8457 72.5863 27.0759C72.5863 26.3063 71.9598 25.751 71.2447 25.751C70.5118 25.751 69.8677 26.3063 69.8677 27.0759C69.8677 27.8456 70.5118 28.4366 71.2447 28.4366ZM71.2447 25.966C71.8525 25.966 72.3181 26.4492 72.3181 27.0759C72.3181 27.7206 71.8525 28.1858 71.2447 28.1858C70.6361 28.1858 70.1539 27.7204 70.1539 27.0759C70.1541 26.4492 70.6363 25.966 71.2447 25.966Z" fill="white"/>
<path d="M69.588 46.6702C69.588 47.4847 68.939 48.1453 68.1396 48.1453C67.34 48.1453 66.6924 47.4847 66.6924 46.6702C66.6924 45.856 67.34 45.1965 68.1396 45.1965C68.939 45.1965 69.588 45.856 69.588 46.6702Z" fill="white"/>
<path d="M87.5373 28.7777C85.4026 27.5666 75.9064 30.3051 72.8593 40.7617C72.5006 40.862 70.7772 41.3183 70.7772 41.3183L70.0239 43.3849L72.696 42.5548C72.696 42.5548 72.4027 47.5678 76.8834 47.7176C80.4019 47.5838 82.2423 42.4882 81.1154 38.9034C80.9008 39.019 78.0891 40.3967 78.0891 40.3967C78.0891 40.3967 78.7405 44.3311 77.1767 44.8126C76.6703 44.8786 76.0761 43.3037 76.6208 40.9444C84.0956 36.9862 88.8345 29.5194 87.5373 28.7777ZM84.5562 31.1678C85.9893 31.0362 79.099 38.5048 77.3387 38.8696C76.769 38.5381 81.7049 31.8818 84.5562 31.1678Z" fill="white"/>
<path d="M83.432 38.3225V39.7993C83.432 39.7993 85.3384 38.5381 85.4849 38.7707C85.5332 39.4343 83.1235 45.0452 83.0742 45.8911C83.025 46.4059 83.4975 48.3481 85.7285 47.3355C86.8211 46.8546 89.7494 44.4097 89.7494 44.4097C89.7494 44.4097 89.2776 45.6571 89.4778 46.6543C89.6761 47.6519 90.8915 47.9145 91.9869 47.5015C93.0824 47.0876 94.3333 46.2394 94.872 45.5758C94.7903 45.3595 94.4805 44.3639 94.4805 44.3639C94.4805 44.3639 93.4987 45.3076 93.257 45.1845C93.0144 45.0608 96.0448 36.0155 96.0448 36.0155C96.0448 36.0155 92.9375 35.8929 92.6277 35.8929C92.1158 38.2691 89.2145 44.2972 87.2126 44.5632C86.5267 44.5133 89.6396 37.4425 89.7548 36.6454C89.9825 35.5994 89.2145 35.1186 88.3036 35.3343C87.3427 35.6668 83.432 38.3225 83.432 38.3225Z" fill="white"/>
<path d="M104.78 35.7921C104.78 35.7921 104.404 36.7386 104.334 36.9018C103.941 36.2106 102.581 34.8639 99.7749 36.6476C96.8456 38.5769 95.5941 41.8716 95.9882 45.3656C96.4169 48.2596 99.49 48.6045 101.562 46.1474C101.348 46.7855 99.15 53.6653 99.15 53.6653L102.563 53.6833L108.14 35.8646L104.78 35.7921ZM101.039 44.4005C100.556 44.673 99.8065 45.1273 99.7001 43.3985C99.6459 41.3604 101.257 39.0819 101.564 38.7248C102.368 37.7968 103.371 37.7798 103.345 39.2492C103.239 40.9412 102.165 43.6167 101.039 44.4005Z" fill="white"/>
<path d="M49.9718 47.4833C48.2651 45.6464 49.5925 42.2645 49.8787 39.2689C49.4984 39.6559 45.7028 48.6424 42.287 48.2542C39.2511 47.2903 39.6304 43.8101 40.5791 41.2015H45.5123C43.9944 45.4525 46.0816 43.7136 47.5053 41.0085C50.3517 35.114 50.5417 34.6311 53.6728 25.74C55.4753 25.74 57.2775 25.74 59.0812 25.74C57.4684 30.7654 55.9496 35.6937 55.2865 40.9116C55.2865 41.1046 55.3807 41.298 55.5707 41.2015C56.7084 41.0085 62.9711 26.7075 63.54 25.74C65.1536 25.74 67.0513 25.74 68.7579 25.74C68.7579 26.2232 62.9711 42.3609 63.92 43.9066C64.3949 44.7762 65.0595 43.1342 65.6278 42.457L66.4826 43.3273C64.7747 45.2607 62.7827 48.738 59.9358 48.159C59.556 48.0622 59.1765 47.8702 58.8925 47.5793C55.9497 44.9707 61.2636 35.5395 60.695 34.9205C60.5182 34.9405 60.3412 35.4199 60.0299 36.0797C58.4163 39.4624 54.7179 48.352 51.6797 48.352C51.2063 48.352 50.2561 47.87 49.9718 47.4833Z" fill="white"/>
<path d="M111.448 44.8327C117.774 41.447 119.292 37.152 117.345 35.9505C114.467 34.3124 106.588 37.2427 107.481 45.2699C107.087 45.506 106.264 45.9614 106.264 45.9614L106.837 47.5628C106.837 47.5628 107.998 46.8536 108.298 46.6417C112.324 49.9659 116.741 44.5153 116.741 44.5153L115.969 43.3036C115.969 43.3036 112.626 46.5789 111.448 44.8327ZM112.287 39.918C113.198 38.2799 114.665 37.0061 115.379 37.5158C116.094 38.0257 114.646 40.6098 111.239 43.3557C111.103 43.1164 111.376 41.5564 112.287 39.918Z" fill="white"/>
<path d="M121.814 36.0776L125.477 35.9688C125.477 35.9688 120.331 40.1045 121.081 44.0135C121.672 46.3896 123.849 45.2322 125.048 42.5392C125.279 42.0112 126.727 38.4256 125.816 38.4256C124.904 38.4256 123.953 40.264 123.953 40.264L122.956 39.2449C122.956 39.2449 124.975 36.3139 127.275 35.5292C127.55 35.441 129.21 35.0955 129.229 37.5156C129.302 38.6439 128.105 44.8329 123.941 47.0164C120.121 49.0168 118.445 46.6213 118.143 45.9063C116.051 40.6155 121.814 36.0776 121.814 36.0776Z" fill="white"/>
</g>
<defs>
<clipPath id="clip0">
<rect width="105" height="44" fill="white" transform="translate(32 17)"/>
</clipPath>
</defs>
</svg>
