<svg width="24" height="24" viewBox="0 0 24 24" fill="none" xmlns="http://www.w3.org/2000/svg">
<path d="M3.25671 14.9677C4.31482 14.9677 4.94706 14.4716 5.23683 13.9052H5.28951V14.8316H6.81741V10.3182C6.81741 8.53564 5.36415 8 4.07774 8C2.65961 8 1.57076 8.63223 1.21952 9.86157L2.70351 10.0723C2.86157 9.61131 3.3094 9.21617 4.08652 9.21617C4.82412 9.21617 5.22805 9.59375 5.22805 10.2567V10.2831C5.22805 10.7397 4.74948 10.7616 3.55966 10.8889C2.25129 11.0294 1 11.4202 1 12.9393C1 14.2652 1.9703 14.9677 3.25671 14.9677ZM3.66942 13.7998C3.00646 13.7998 2.53228 13.4969 2.53228 12.913C2.53228 12.3027 3.06353 12.048 3.77479 11.9471C4.19189 11.89 5.02608 11.7846 5.23244 11.6178V12.4124C5.23244 13.1632 4.62655 13.7998 3.66942 13.7998Z" fill="#0073AE"/>
<path d="M8.41555 17.3605H10.0049V13.7691H10.0708C10.321 14.2608 10.8435 14.9502 12.0026 14.9502C13.5919 14.9502 14.7818 13.6901 14.7818 11.4685C14.7818 9.22056 13.5568 8 11.9982 8C10.8084 8 10.3122 8.71565 10.0708 9.203H9.97856V8.08781H8.41555V17.3605ZM9.97417 11.4597C9.97417 10.1513 10.5362 9.30398 11.5591 9.30398C12.6173 9.30398 13.1617 10.204 13.1617 11.4597C13.1617 12.7242 12.6085 13.6462 11.5591 13.6462C10.5449 13.6462 9.97417 12.7681 9.97417 11.4597Z" fill="#0073AE"/>
<path d="M16.1428 17.3605H17.7322V13.7691H17.798C18.0483 14.2608 18.5708 14.9502 19.7299 14.9502C21.3192 14.9502 22.509 13.6901 22.509 11.4685C22.509 9.22056 21.2841 8 19.7255 8C18.5356 8 18.0395 8.71565 17.798 9.203H17.7058V8.08781H16.1428V17.3605ZM17.7014 11.4597C17.7014 10.1513 18.2634 9.30398 19.2864 9.30398C20.3445 9.30398 20.8889 10.204 20.8889 11.4597C20.8889 12.7242 20.3357 13.6462 19.2864 13.6462C18.2722 13.6462 17.7014 12.7681 17.7014 11.4597Z" fill="#0073AE"/>
</svg>
