<svg width="23" height="23" viewBox="0 0 23 23" fill="none" xmlns="http://www.w3.org/2000/svg">
<path opacity="0.4" d="M16.021 1.08301H6.98975C3.4585 1.08301 1.0835 3.56217 1.0835 7.24967V15.7601C1.0835 19.4372 3.4585 21.9163 6.98975 21.9163H16.021C19.5522 21.9163 21.9168 19.4372 21.9168 15.7601V7.24967C21.9168 3.56217 19.5522 1.08301 16.021 1.08301Z" fill="#0073AE"/>
<path d="M10.2637 14.8832C10.0304 14.8832 9.79707 14.7946 9.61895 14.6165L7.14707 12.1446C6.79082 11.7884 6.79082 11.2113 7.14707 10.8561C7.50332 10.4998 8.07936 10.4988 8.43561 10.855L10.2637 12.6832L14.5637 8.38315C14.92 8.0269 15.496 8.0269 15.8523 8.38315C16.2085 8.7394 16.2085 9.31649 15.8523 9.67274L10.9085 14.6165C10.7304 14.7946 10.4971 14.8832 10.2637 14.8832Z" fill="#0073AE"/>
</svg>
