<svg width="25" height="25" viewBox="0 0 25 25" fill="none" xmlns="http://www.w3.org/2000/svg">
<path d="M17.0215 2.08301H7.99023C4.45898 2.08301 2.08398 4.56217 2.08398 8.24967V16.7601C2.08398 20.4372 4.45898 22.9163 7.99023 22.9163H17.0215C20.5527 22.9163 22.9173 20.4372 22.9173 16.7601V8.24967C22.9173 4.56217 20.5527 2.08301 17.0215 2.08301Z" fill="#E6FFF0"/>
<path d="M11.2647 15.8832C11.0314 15.8832 10.798 15.7946 10.6199 15.6165L8.14805 13.1446C7.7918 12.7884 7.7918 12.2113 8.14805 11.8561C8.5043 11.4998 9.08034 11.4988 9.43659 11.855L11.2647 13.6832L15.5647 9.38315C15.921 9.0269 16.497 9.0269 16.8533 9.38315C17.2095 9.7394 17.2095 10.3165 16.8533 10.6727L11.9095 15.6165C11.7314 15.7946 11.498 15.8832 11.2647 15.8832Z" fill="#01D957"/>
</svg>
