<svg width="30" height="30" viewBox="0 0 30 30" fill="none" xmlns="http://www.w3.org/2000/svg">
<g opacity="0.7" clip-path="url(#clip0)">
<path d="M27.7661 0H2.15815C0.966181 0 0 0.966181 0 2.15815V27.7661C0 28.958 0.966181 29.9242 2.15815 29.9242H15.9849V18.352H12.0983V13.8224H15.9849V10.489C15.9849 6.62332 18.3449 4.51927 21.7932 4.51927C23.4447 4.51927 24.8641 4.64233 25.2778 4.69735V8.73764H22.9C21.0238 8.73764 20.6606 9.62916 20.6606 10.9376V13.8224H25.1463L24.5618 18.352H20.6606V29.9242H27.7661C28.958 29.9242 29.9242 28.958 29.9242 27.7661V2.15815C29.9242 0.966181 28.958 0 27.7661 0V0Z" fill="white"/>
</g>
<defs>
<clipPath id="clip0">
<rect width="29.9242" height="29.9242" fill="white"/>
</clipPath>
</defs>
</svg>
