<svg width="623" height="365" viewBox="0 0 623 365" fill="none" xmlns="http://www.w3.org/2000/svg">
<g clip-path="url(#clip0)">
<path d="M107.1 263.9C108 271.9 98.6996 327.8 194.4 346.3C289.1 364.6 407 316.3 407 316.3H413.8C413.8 316.3 310.2 367.6 204.2 352.4C98.1996 337.2 103.5 276.3 103.1 263.9H107.1Z" fill="#00A7E4"/>
<path d="M305 316.2C305 316.2 236.4 355.7 185.7 358C135 360.3 91.2002 342.4 104.4 263.9H100.4C100.4 263.9 89.0002 331.4 128.1 352.1C167.2 372.8 218.2 374.6 327.6 316.2H305Z" fill="#00A7E4"/>
<path d="M61.8 149.7V187.8H17.5V149.7H-0.5V235.6H17.4V195.5H61.7V226.3C61.7 228.2 62.1 229.8 62.8 231.1C63.6 232.3 64.5 233.2 65.7 233.9C66.8 234.5 68 235 69.3 235.2C70.6 235.4 71.7 235.5 72.7 235.5H79.6V149.6H61.8V149.7Z" fill="#006499"/>
<path d="M412.5 235.6V149.7H395L359.9 213.3L324.1 149.7H306.3V235.6H315.5V169L353.2 235.6H357.9L394.6 169.5V226.3C394.6 228.2 395 229.8 395.8 231.1C396.5 232.3 397.5 233.2 398.6 233.9C399.7 234.6 401 235 402.3 235.2C403.6 235.4 404.7 235.5 405.8 235.5H412.5V235.6Z" fill="#006499"/>
<path d="M525.1 235.6L480.2 147.8H475L429 235.6H439.5L453.8 208.3H486.4L481.9 199.5H458.4L473.5 170.6L503.1 228.7C504.3 231.1 505.7 232.8 507.4 233.9C509.1 235 511.4 235.5 514.1 235.5H525.1V235.6Z" fill="#006499"/>
<path d="M618.4 149.7C617.9 149.7 617.4 149.7 616.7 149.8C616.1 149.9 615.4 150.1 614.9 150.5C614.3 150.9 613.8 151.4 613.4 152C613 152.6 612.8 153.5 612.8 154.4V209.8L553.1 149.7H541.6V235.6H552.1V170.8L612.7 233.4C615.2 235.7 618.6 235.5 621.9 235.5H623.1V149.6H618.4V149.7Z" fill="#006499"/>
<path d="M429 53.1C388.9 49.7 343.1 54.5 312.5 60.7C275.2 68.3 240.4 78.8 207.6 93.2C200.1 96.5 192.9 100.1 185.8 103.9C208.5 86.8 234.1 70.4 261.4 56.5C338 17.5 418.3 2.70001 456.3 31C466.8 38.8 472.7 49 474.9 60.9C456.6 56 439.6 54 429 53.1ZM171.7 115.2C171.7 115.2 192.6 103.3 208.3 96.7C246.9 80.3 280.9 70.7 312.2 64.8C337.5 60 414.5 48 475.6 67.2C476.6 81.4 472.7 97.8 464.9 115.3H490C496.2 102.4 500.4 89.9 502.3 78.3C511.8 83.4 520.5 89.7 528 97.2C535 104.2 541.7 115.3 541.7 115.3H552.8C552.8 115.3 548.1 104.6 537.6 94C527.9 84.1 515.9 76.6 503.2 70.9C505.1 48.3 497.7 29.1 478.7 15.9C433.3 -15.8 343.3 2.4 260.3 46.9C223.1 66.8 189.3 91 161.5 115.3H171.7V115.2Z" fill="#00A7E4"/>
<path d="M147.8 147.8H142.5L96.5 235.6H107L141 170.7L155.7 199.6H132.1L127.5 208.4H160.2L170.5 228.9C171.7 231.3 173.1 233 174.8 234.1C176.5 235.2 178.8 235.7 181.5 235.7H192.5L147.8 147.8Z" fill="#006499"/>
<path d="M227.5 157.2V189.7H235.8C235.8 189.7 244 189.8 249.4 186.8C254.8 183.7 258.5 179.5 258.5 173.1C258.5 166.7 254.4 161.1 248.6 158.8C248.6 158.8 245.3 157.2 239.4 157.2H227.5ZM263.2 228.7L236.7 196.3H227.5V235.6H209.6V149.7H242.5C242.5 149.7 256.1 149.5 265 153.9C273.9 158.4 277.7 164.6 277.7 172.5C277.7 180.4 272.9 189.8 255.9 194.5L290.2 235.5H276.5C276.5 235.5 273.6 235.5 270.2 234.4C266.8 233.3 263.2 228.7 263.2 228.7Z" fill="#006499"/>
<path d="M241.5 267.5L236.4 278.7H246.6L241.5 267.5ZM253 288.4H251.1L247.3 280.2H235.7L231.9 288.4H230L241 264.5H242L253 288.4Z" fill="black"/>
<path d="M470.7 268.3C467.7 266.7 465.1 266 462.2 266C456.3 266 451.8 270.5 451.8 276.5C451.8 282.6 456.2 287 462.4 287C465.1 287 467.6 286.3 470.9 284.6V286.5C468.1 288 465.2 288.7 462.5 288.7C455.3 288.7 449.9 283.5 449.9 276.5C449.9 269.2 455.9 264.3 462.4 264.3C465 264.3 467.9 265 470.8 266.3V268.3H470.7Z" fill="black"/>
<path d="M487.901 266C481.901 266 477.301 270.6 477.301 276.5C477.301 282.4 482.001 287 487.901 287C493.901 287 498.501 282.4 498.501 276.5C498.401 270.6 493.801 266 487.901 266ZM487.801 288.7C480.801 288.7 475.301 283.3 475.301 276.5C475.301 269.7 480.801 264.3 487.801 264.3C494.901 264.3 500.401 269.7 500.401 276.5C500.401 283.3 494.901 288.7 487.801 288.7Z" fill="black"/>
<path d="M526.6 264.6H528.4V288.4H526.6V267.3H526.5L517.5 278.4L508.5 267.3H508.4V288.4H506.6V264.6H508.4L517.5 275.7L526.6 264.6Z" fill="black"/>
<path d="M537.4 275.7H541.8C546.2 275.7 547.9 273.6 547.9 270.9C547.9 268.3 546.2 266.1 542 266.1H537.4V275.7ZM542.1 264.6C547.7 264.6 549.9 267.5 549.9 270.9C549.9 274 548.1 277.3 542 277.3H537.5V288.4H535.7V264.6H542.1Z" fill="black"/>
<path d="M560.9 267.5L555.8 278.7H566L560.9 267.5ZM572.4 288.4H570.5L566.7 280.2H555.1L551.3 288.4H549.4L560.4 264.5H561.4L572.4 288.4Z" fill="black"/>
<path d="M598.4 288.4H596.9L578.8 267.6V288.4H577V264.6H578.5L596.5 285.4V264.6H598.4V288.4Z" fill="black"/>
<path d="M613.9 275.6V288.4H612.1V275.6L602.8 264.6H605.1L613 274L620.9 264.6H623.2L613.9 275.6Z" fill="black"/>
<path d="M278.7 281.8C278.9 282.4 278.9 283.1 278.7 283.6C278.5 284.4 278 285.2 276.4 285.2C274.9 285.2 274 284.3 274 283V280.7H267.6V282.5C267.6 287.9 271.8 289.5 276.3 289.5C280.6 289.5 284.2 288 284.8 284C285.1 281.9 284.9 280.6 284.8 280.1C283.8 275.1 274.7 273.6 274 270.8C273.9 270.3 273.9 269.8 274 269.5C274.2 268.7 274.7 267.9 276.2 267.9C277.6 267.9 278.4 268.8 278.4 270.1V271.6H284.4V269.9C284.4 264.7 279.7 263.9 276.3 263.9C272 263.9 268.6 265.3 267.9 269.2C267.7 270.3 267.7 271.2 268 272.4C269 277.3 277.5 278.7 278.7 281.8Z" fill="black"/>
<path d="M356.6 281.8C356.8 282.4 356.7 283.1 356.6 283.6C356.4 284.4 355.9 285.2 354.3 285.2C352.8 285.2 351.9 284.4 351.9 283.1V280.8H345.5V282.6C345.5 287.9 349.7 289.5 354.1 289.5C358.4 289.5 361.9 288 362.5 284.1C362.8 282.1 362.6 280.7 362.5 280.2C361.5 275.2 352.5 273.7 351.8 271C351.7 270.5 351.7 270 351.8 269.8C352 269 352.5 268.2 354 268.2C355.4 268.2 356.2 269 356.2 270.4V271.9H362.1V270C362.1 264.8 357.5 264 354.1 264C349.9 264 346.4 265.4 345.8 269.3C345.6 270.4 345.6 271.3 345.9 272.5C347 277.3 355.4 278.7 356.6 281.8Z" fill="black"/>
<path d="M406.4 283.9L406 264.6H411.9V288.3H403.4L397.4 268.4L397.7 288.3H391.8V264.6H400.7L406.4 283.9Z" fill="black"/>
<path d="M298.6 266.4L295.3 288.6H288.8L293.2 264.6H303.9L308.3 288.6H301.9L298.6 266.4Z" fill="black"/>
<path d="M333.6 266.4L329.5 288.6H323.4L319.3 266.4L319.1 288.6H313.1L313.6 264.6H323.4L326.4 283.4L329.5 264.6H339.2L339.8 288.6H333.7L333.6 266.4Z" fill="black"/>
<path d="M376.7 285C378.4 285 378.9 283.8 379 283.3C379.1 283 379.1 282.7 379.1 282.4V264.7H385.2V281.9C385.2 282.3 385.2 283.2 385.2 283.5C384.8 288 381.2 289.4 376.8 289.4C372.4 289.4 368.9 288 368.4 283.5C368.4 283.2 368.3 282.4 368.3 281.9V264.7H374.4V282.4C374.4 282.7 374.4 283.1 374.5 283.3C374.6 283.9 375.1 285 376.7 285Z" fill="black"/>
<path d="M426.7 284.8C428.5 284.8 429.1 283.7 429.2 283C429.3 282.7 429.3 282.4 429.3 282.1V278.6H426.8V275.1H435.3V281.5C435.3 281.9 435.3 282.3 435.2 283.1C434.8 287.5 431 289 426.8 289C422.6 289 418.8 287.4 418.4 283.1C418.3 282.3 418.3 282 418.3 281.5V271.4C418.3 271 418.4 270.2 418.4 269.8C418.9 265.3 422.6 263.9 426.8 263.9C431.1 263.9 434.8 265.3 435.2 269.8C435.3 270.6 435.2 271.4 435.2 271.4V272.2H429.2V270.9C429.2 270.9 429.2 270.3 429.1 270C429 269.5 428.5 268.3 426.7 268.3C425 268.3 424.4 269.5 424.3 270C424.2 270.3 424.2 270.7 424.2 271.1V282C424.2 282.3 424.2 282.6 424.3 282.9C424.4 283.7 425 284.8 426.7 284.8Z" fill="black"/>
</g>
<defs>
<clipPath id="clip0">
<rect width="623" height="365" fill="white"/>
</clipPath>
</defs>
</svg>
