<svg width="269" height="47" viewBox="0 0 269 47" fill="none" xmlns="http://www.w3.org/2000/svg">
<path d="M19.4444 10.0314V21.993H5.61798V10.0314H0V37H5.58677V24.4105H19.4132V34.0802C19.4132 34.6767 19.5381 35.1791 19.7566 35.5872C20.0062 35.964 20.2871 36.2465 20.6617 36.4663C21.005 36.6546 21.3795 36.8116 21.7853 36.8744C22.191 36.9372 22.5343 36.9686 22.8464 36.9686H25V10H19.4444V10.0314Z" fill="#006499"/>
<path d="M126 37V10H120.562L109.655 29.9907L98.5311 10H93V37H95.8588V16.0664L107.573 37H109.034L120.438 16.2235V34.0768C120.438 34.674 120.562 35.1769 120.811 35.5856C121.028 35.9627 121.339 36.2456 121.681 36.4657C122.023 36.6857 122.427 36.8114 122.831 36.8743C123.234 36.9371 123.576 36.9686 123.918 36.9686H126V37Z" fill="#006499"/>
<path d="M160 37L146.451 10H144.881L131 37H134.169L138.484 28.6048H148.322L146.964 25.8986H139.872L144.429 17.0114L153.361 34.8781C153.723 35.6162 154.146 36.1389 154.659 36.4772C155.172 36.8155 155.866 36.9692 156.681 36.9692H160V37Z" fill="#006499"/>
<path d="M188.558 10.0314C188.405 10.0314 188.252 10.0314 188.037 10.0628C187.853 10.0942 187.638 10.157 187.485 10.2826C187.301 10.4081 187.147 10.5651 187.025 10.7535C186.902 10.9419 186.84 11.2244 186.84 11.507V28.9L168.528 10.0314H165V37H168.221V16.6558L186.81 36.3093C187.577 37.0314 188.62 36.9686 189.632 36.9686H190V10H188.558V10.0314Z" fill="#006499"/>
<path d="M44.9625 10H43.4167L30 36.9693H33.0625L42.9792 17.0341L47.2667 25.9113H40.3833L39.0417 28.6143H48.5792L51.5833 34.9113C51.9333 35.6485 52.3417 36.1706 52.8375 36.5085C53.3333 36.8464 54.0042 37 54.7917 37H58L44.9625 10Z" fill="#006499"/>
<path d="M69.5521 12.3578V22.573H72.1265C72.1265 22.573 74.67 22.6044 76.3449 21.6615C78.0198 20.6871 79.1675 19.367 79.1675 17.3554C79.1675 15.3438 77.8958 13.5836 76.0968 12.8607C76.0968 12.8607 75.0732 12.3578 73.2432 12.3578H69.5521ZM80.6253 34.8312L72.4057 24.6475H69.5521V37H64V10.0004H74.2047C74.2047 10.0004 78.4231 9.93757 81.1836 11.3205C83.9442 12.735 85.1228 14.6837 85.1228 17.1668C85.1228 19.6499 83.634 22.6044 78.361 24.0817L89 36.9686H84.7506C84.7506 36.9686 83.8511 36.9686 82.7965 36.6228C81.7419 36.2771 80.6253 34.8312 80.6253 34.8312Z" fill="#006499"/>
<rect x="210" width="1.5" height="47" fill="#006499"/>
<path d="M257 6H260L247 21H244L257 6Z" fill="#006499"/>
<path d="M240 26H243L233 38H230L240 26Z" fill="#006499"/>
<path d="M218 3H222L255 38H250L218 3Z" fill="#00A9E4"/>
<path d="M231 8H236L269 43H264L231 8Z" fill="#00A9E4"/>
</svg>
