<svg width="31" height="30" viewBox="0 0 31 30" fill="none" xmlns="http://www.w3.org/2000/svg">
<g opacity="0.7" clip-path="url(#clip0)">
<path d="M28.6904 0H3.08247C1.8905 0 0.924316 0.966181 0.924316 2.15815V27.7661C0.924316 28.958 1.8905 29.9242 3.08247 29.9242H28.6904C29.8823 29.9242 30.8485 28.958 30.8485 27.7661V2.15815C30.8485 0.966181 29.8823 0 28.6904 0ZM11.5386 22.6185H7.89465V11.6556H11.5386V22.6185ZM9.71675 10.1586H9.693C8.47021 10.1586 7.67936 9.31684 7.67936 8.26482C7.67936 7.18905 8.49441 6.37058 9.74095 6.37058C10.9875 6.37058 11.7546 7.18905 11.7783 8.26482C11.7783 9.31684 10.9875 10.1586 9.71675 10.1586ZM24.6779 22.6185H21.0344V16.7536C21.0344 15.2797 20.5068 14.2745 19.1884 14.2745C18.1818 14.2745 17.5823 14.9525 17.3188 15.6071C17.2225 15.8413 17.1989 16.1687 17.1989 16.4963V22.6185H13.5552C13.5552 22.6185 13.6029 12.6841 13.5552 11.6556H17.1989V13.2078C17.6832 12.4608 18.5496 11.3983 20.4829 11.3983C22.8803 11.3983 24.6779 12.9651 24.6779 16.3324V22.6185Z" fill="white"/>
</g>
<defs>
<clipPath id="clip0">
<rect width="29.9242" height="29.9242" fill="white" transform="translate(0.924316)"/>
</clipPath>
</defs>
</svg>
