<svg width="63" height="63" viewBox="0 0 63 63" fill="none" xmlns="http://www.w3.org/2000/svg">
<path opacity="0.3" d="M57.75 41.8425C57.75 49.1663 51.87 55.0988 44.5462 55.125H44.52H18.5062C11.2088 55.125 5.25 49.2187 5.25 41.895V41.8687C5.25 41.8687 5.26575 30.2505 5.28675 24.4072C5.28937 23.31 6.54937 22.6957 7.40775 23.3782C13.6447 28.3264 24.7984 37.3485 24.9375 37.4666C26.8012 38.9602 29.1637 39.8029 31.5787 39.8029C33.9937 39.8029 36.3562 38.9602 38.22 37.4377C38.3591 37.3459 49.2634 28.5941 55.5949 23.5646C56.4559 22.8795 57.7211 23.4937 57.7237 24.5884C57.75 30.387 57.75 41.8425 57.75 41.8425Z" fill="#0073AE"/>
<path d="M56.3743 14.8928C54.1011 10.6088 49.6281 7.87354 44.7036 7.87354H18.5061C13.5816 7.87354 9.10857 10.6088 6.83532 14.8928C6.32607 15.8509 6.56757 17.0453 7.41544 17.7225L26.9061 33.3124C28.2711 34.4149 29.9248 34.9635 31.5786 34.9635C31.5891 34.9635 31.5969 34.9635 31.6048 34.9635C31.6127 34.9635 31.6232 34.9635 31.6311 34.9635C33.2848 34.9635 34.9386 34.4149 36.3036 33.3124L55.7942 17.7225C56.6421 17.0453 56.8836 15.8509 56.3743 14.8928Z" fill="#0073AE"/>
</svg>
