<svg width="168" height="77" viewBox="0 0 168 77" fill="none" xmlns="http://www.w3.org/2000/svg">
<g clip-path="url(#clip0)">
<path d="M12.0044 16H55.9814V53.1005H12.0044V16Z" fill="#FF3300"/>
<path d="M45.8266 37.3356V40.0402C45.8266 40.753 45.2527 41.3308 44.5448 41.3308C43.837 41.3308 43.2631 40.753 43.2631 40.0402V26.741H40.7761V42.2747H48.3135V37.3279H45.8266V37.3356ZM27.1476 40.0171C27.1476 40.7414 26.5813 41.35 25.8697 41.35C25.1542 41.3416 24.5798 40.7529 24.5841 40.0325V37.3279H22.0972V39.5702C22.0972 40.6951 23.0766 42.5059 25.862 42.5059C28.6474 42.5059 29.6269 41.1189 29.6269 39.5702V26.741H27.1476V40.0171ZM36.4833 26.741H31.5093V42.2747H36.4833C38.3427 42.2747 38.9702 41.0342 38.9702 40.2405V35.5943C38.9702 34.9316 38.3121 34.0686 37.3326 34.0686C38.3121 34.0686 38.9702 32.6971 38.9702 31.9266V29.276C38.9702 27.5578 37.4398 26.741 36.4833 26.741ZM35.5038 41.0111H33.9963V34.7467H35.5038C36.4833 34.7467 36.4833 35.4633 36.4833 37.8981C36.4833 40.333 36.4833 41.0111 35.5038 41.0111ZM35.3507 33.4368L33.9963 33.4291V28.2127H35.3507C36.2613 28.2127 36.4833 28.4053 36.4833 30.8402C36.4833 33.275 36.2613 33.4368 35.3507 33.4368ZM23.3445 35.6405C24.1536 35.6552 24.8214 35.0068 24.8362 34.1921C24.8509 33.3774 24.2069 32.7048 23.3978 32.6899C22.5887 32.675 21.9208 33.3233 21.9059 34.138V34.1611C21.8974 34.9696 22.5415 35.632 23.3445 35.6405ZM25.6401 26.741H21.0488L23.3445 32.1115L25.6401 26.741Z" fill="white"/>
<path d="M20.4438 55.7357V58.2091H17.6355V55.7357H16.5029V61.2989H17.6431V58.7022H20.4515V60.6978C20.4469 60.8049 20.4707 60.9113 20.5203 61.006C20.5635 61.0816 20.6272 61.1431 20.704 61.1833C20.7738 61.2275 20.852 61.2564 20.9335 61.268C21.0041 61.2827 21.0758 61.2904 21.1478 61.2912H21.584V55.728H20.4438V55.7357Z" fill="#FF3300"/>
<path d="M42.6506 61.2989V55.7357H41.541L39.3143 59.8503L37.0492 55.728H35.9243V61.2912H36.5059V56.9762L38.8934 61.2912H39.1918L41.5181 57.0147V60.6978C41.5159 60.8056 41.5424 60.912 41.5946 61.006C41.6396 61.0821 41.7027 61.1457 41.7783 61.191C41.848 61.2352 41.9263 61.2641 42.0078 61.2757C42.081 61.2904 42.1552 61.2981 42.2297 61.2989H42.6506Z" fill="#FF3300"/>
<path d="M49.7743 61.2989L46.9354 55.6125H46.5987L43.6909 61.2989H44.3566L45.2595 59.5344H47.318L47.0349 58.9643H45.5503L46.5069 57.0919L48.3816 60.852C48.442 60.9877 48.5371 61.1047 48.6572 61.1911C48.7844 61.2664 48.9304 61.3039 49.078 61.2989H49.7743Z" fill="#FF3300"/>
<path d="M55.6897 55.7355C55.6538 55.7346 55.618 55.7372 55.5826 55.7432C55.542 55.752 55.5032 55.7676 55.4677 55.7895C55.43 55.8121 55.3985 55.8439 55.376 55.8819C55.35 55.9291 55.3369 55.9821 55.3377 56.0361V59.6189L51.5575 55.7355H50.8306V61.2987H51.4963V57.1071L55.3377 61.16C55.4908 61.3141 55.7127 61.2987 55.9193 61.2987H55.9957V55.7355H55.6897Z" fill="#FF3300"/>
<path d="M25.8924 55.6125H25.5635L22.6479 61.2989H23.3137L25.4639 57.0919L26.3975 58.9643H24.9054L24.6145 59.5267H26.6883L27.3464 60.852C27.4067 60.9877 27.5018 61.1047 27.6218 61.1911C27.7501 61.2635 27.8959 61.2982 28.0428 61.2912H28.7391L25.8924 55.6125Z" fill="#FF3300"/>
<path d="M33.1926 60.852L31.5168 58.7561H30.9352V61.2989H29.8027V55.7357H31.8918C31.8918 55.7357 32.7488 55.7203 33.3151 56.0131C33.8813 56.3059 34.1185 56.7066 34.1185 57.2228C34.1185 57.739 33.8201 58.3401 32.7411 58.6483L34.9144 61.2989H34.0344C33.8992 61.2944 33.7652 61.2711 33.6364 61.2295C33.4298 61.1448 33.1926 60.852 33.1926 60.852ZM30.9352 56.2211V58.3247H31.4632C31.4632 58.3247 31.9836 58.3324 32.3279 58.132C32.6723 57.9317 32.9095 57.6543 32.9095 57.2459C32.907 56.8377 32.6587 56.472 32.282 56.3213C32.0984 56.2426 31.8999 56.2058 31.7004 56.2134H30.9352V56.2211Z" fill="#FF3300"/>
<path d="M12.0039 58.7021H12.1722V59.7732C12.3405 59.6036 12.4936 59.5112 12.7461 59.5112C13.1593 59.5112 13.4501 59.8348 13.4501 60.3048C13.4501 60.8519 13.0981 61.1986 12.5625 61.1986C12.3699 61.1961 12.1798 61.1542 12.0039 61.0753V58.7021ZM12.1799 60.9598C12.304 61.0099 12.4364 61.036 12.5701 61.0368C12.9503 61.0498 13.2689 60.75 13.2818 60.3672C13.2818 60.3518 13.2818 60.3356 13.2818 60.3202C13.2818 59.9349 13.0522 59.6653 12.7309 59.6653C12.5319 59.6653 12.3712 59.7578 12.1799 59.9812V60.9598Z" fill="#FF3300"/>
<path d="M13.9702 62H13.8018L14.3528 60.8519L13.687 59.542H13.863L14.4369 60.6823L14.9878 59.542H15.1638L13.9702 62Z" fill="#FF3300"/>
</g>
<path d="M72.0847 27.3131C72.0847 24.2831 70.2355 22.498 67.7777 22.498C65.3152 22.498 63.4707 24.2831 63.4707 27.3131C63.4707 30.3385 65.3152 32.1281 67.7777 32.1281C70.2355 32.1281 72.0847 30.3431 72.0847 27.3131ZM70.3774 27.3131C70.3774 29.446 69.3064 30.6039 67.7777 30.6039C66.2535 30.6039 65.1779 29.446 65.1779 27.3131C65.1779 25.1802 66.2535 24.0222 67.7777 24.0222C69.3064 24.0222 70.3774 25.1802 70.3774 27.3131Z" fill="#9A9D9A"/>
<path d="M76.807 34.3891H78.4685V32.1373C80.5373 32.1373 81.9607 30.6726 81.9607 28.5123C81.9607 26.3473 80.5373 24.8781 78.4685 24.8781V22.6262H76.807V24.8781C74.7382 24.8781 73.3147 26.3473 73.3147 28.5123C73.3147 30.6726 74.7382 32.1373 76.807 32.1373V34.3891ZM76.807 30.8008C75.6353 30.8008 75.0082 29.7664 75.0082 28.5123C75.0082 27.2581 75.6261 26.2146 76.807 26.2146V30.8008ZM78.4685 30.8008V26.2146C79.6493 26.2146 80.2626 27.2581 80.2626 28.5123C80.2626 29.7664 79.6493 30.8008 78.4685 30.8008Z" fill="#9A9D9A"/>
<path d="M84.9564 29.7572V24.9696H83.359V31.9999H85.0662L87.8719 27.2078V31.9999H89.4739V24.9696H87.7712L84.9564 29.7572Z" fill="#9A9D9A"/>
<path d="M97.1118 24.9696H95.5281V30.6406H92.7728V24.9696H91.1754V31.9999H96.5671V34.261H98.1874V30.7641H97.1118V24.9696Z" fill="#9A9D9A"/>
<path d="M101.143 29.7572V24.9696H99.5456V31.9999H101.253L104.059 27.2078V31.9999H105.661V24.9696H103.958L101.143 29.7572Z" fill="#9A9D9A"/>
<path d="M109.385 32.1418C110.488 32.1418 111.147 31.6246 111.449 31.0342H111.504V31.9999H113.097V27.2948C113.097 25.4365 111.582 24.8781 110.241 24.8781C108.763 24.8781 107.628 25.5372 107.261 26.8188L108.808 27.0385C108.973 26.5579 109.44 26.1459 110.25 26.1459C111.019 26.1459 111.44 26.5396 111.44 27.2307V27.2581C111.44 27.7342 110.941 27.757 109.701 27.8898C108.337 28.0362 107.032 28.4436 107.032 30.0272C107.032 31.4095 108.044 32.1418 109.385 32.1418ZM109.815 30.9243C109.124 30.9243 108.63 30.6085 108.63 29.9998C108.63 29.3636 109.184 29.0981 109.925 28.9928C110.36 28.9333 111.23 28.8235 111.445 28.6496V29.478C111.445 30.2607 110.813 30.9243 109.815 30.9243Z" fill="#9A9D9A"/>
<path d="M114.278 31.9999H114.791C116.301 31.9999 116.983 30.9381 117.093 28.5946L117.203 26.329H119.221V31.9999H120.823V24.9696H115.697L115.573 28.082C115.495 30.0547 115.239 30.636 114.511 30.636H114.269L114.278 31.9999Z" fill="#9A9D9A"/>
<path d="M124.089 27.2581V24.9696H122.491V31.9999H125.686C127.476 31.9999 128.506 31.0113 128.51 29.629C128.506 28.2102 127.476 27.2581 125.686 27.2581H124.089ZM124.089 28.6175H125.686C126.405 28.6175 126.922 29.0432 126.922 29.6519C126.922 30.2332 126.405 30.6406 125.686 30.6406H124.089V28.6175Z" fill="#9A9D9A"/>
<path d="M131.528 24.9696H129.93V31.9999H131.528V29.1576H134.251V31.9999H135.844V24.9696H134.251V27.7982H131.528V24.9696Z" fill="#9A9D9A"/>
<path d="M139.117 27.2581V24.9696H137.52V31.9999H140.715C142.504 31.9999 143.534 31.0113 143.539 29.629C143.534 28.2102 142.504 27.2581 140.715 27.2581H139.117ZM144.413 31.9999H146.07V24.9696H144.413V31.9999ZM139.117 28.6175H140.715C141.433 28.6175 141.951 29.0432 141.951 29.6519C141.951 30.2332 141.433 30.6406 140.715 30.6406H139.117V28.6175Z" fill="#9A9D9A"/>
<path d="M149.376 29.7572V24.9696H147.778V31.9999H149.485L152.291 27.2078V31.9999H153.893V24.9696H152.191L149.376 29.7572ZM151.737 22.553C151.733 23.0015 151.476 23.3997 150.831 23.3997C150.177 23.3997 149.929 22.9924 149.929 22.553H148.698C148.694 23.624 149.522 24.3472 150.831 24.3472C152.149 24.3472 152.978 23.624 152.978 22.553H151.737Z" fill="#9A9D9A"/>
<path d="M81.4069 41.7572V36.9696H79.8095V43.9999H81.5168L84.3225 39.2078V43.9999H85.9244V36.9696H84.2218L81.4069 41.7572Z" fill="#9A9D9A"/>
<path d="M89.2233 36.9696H87.6259V43.9999H89.2233V41.1576H91.9466V43.9999H93.5394V36.9696H91.9466V39.7982H89.2233V36.9696Z" fill="#9A9D9A"/>
<path d="M94.4285 38.329H96.7033V43.9999H98.3053V38.329H100.58V36.9696H94.4285V38.329Z" fill="#9A9D9A"/>
<path d="M104.722 44.1373C106.361 44.1373 107.487 43.3363 107.78 42.1142L106.233 41.9403C106.008 42.5353 105.459 42.8465 104.745 42.8465C103.674 42.8465 102.965 42.1417 102.951 40.9379H107.848V40.4299C107.848 37.9629 106.365 36.8781 104.635 36.8781C102.621 36.8781 101.308 38.3565 101.308 40.526C101.308 42.7321 102.603 44.1373 104.722 44.1373ZM102.956 39.8211C103.006 38.924 103.67 38.1688 104.658 38.1688C105.61 38.1688 106.251 38.8645 106.26 39.8211H102.956Z" fill="#9A9D9A"/>
<path d="M109.25 46.6363H110.907V42.8923H110.976C111.236 43.4049 111.781 44.1235 112.989 44.1235C114.646 44.1235 115.887 42.8099 115.887 40.4939C115.887 38.1505 114.61 36.8781 112.985 36.8781C111.745 36.8781 111.227 37.6242 110.976 38.1322H110.879V36.9696H109.25V46.6363ZM110.875 40.4848C110.875 39.1208 111.461 38.2375 112.527 38.2375C113.63 38.2375 114.198 39.1758 114.198 40.4848C114.198 41.803 113.621 42.7641 112.527 42.7641C111.47 42.7641 110.875 41.8487 110.875 40.4848Z" fill="#9A9D9A"/>
<path d="M118.903 36.9696H117.306V43.9999H118.903V41.1576H121.626V43.9999H123.219V36.9696H121.626V39.7982H118.903V36.9696Z" fill="#9A9D9A"/>
<path d="M128.008 44.1373C129.646 44.1373 130.772 43.3363 131.065 42.1142L129.518 41.9403C129.294 42.5353 128.745 42.8465 128.031 42.8465C126.96 42.8465 126.25 42.1417 126.237 40.9379H131.134V40.4299C131.134 37.9629 129.651 36.8781 127.921 36.8781C125.907 36.8781 124.593 38.3565 124.593 40.526C124.593 42.7321 125.889 44.1373 128.008 44.1373ZM126.241 39.8211C126.291 38.924 126.955 38.1688 127.944 38.1688C128.896 38.1688 129.537 38.8645 129.546 39.8211H126.241Z" fill="#9A9D9A"/>
<path d="M131.95 38.329H134.225V43.9999H135.827V38.329H138.101V36.9696H131.95V38.329Z" fill="#9A9D9A"/>
<path d="M74.384 54.073L72.3518 48.9696H70.3379V55.9999H71.9353V51.2627L73.8073 55.9999H74.9653L76.9014 51.2124V55.9999H78.485V48.9696H76.4712L74.384 54.073Z" fill="#9A9D9A"/>
<path d="M82.1787 56.1418C83.2818 56.1418 83.9409 55.6246 84.2429 55.0342H84.2979V55.9999H85.8907V51.2948C85.8907 49.4365 84.3757 48.8781 83.0346 48.8781C81.5562 48.8781 80.4211 49.5372 80.055 50.8188L81.602 51.0385C81.7668 50.5579 82.2336 50.1459 83.0438 50.1459C83.8127 50.1459 84.2338 50.5396 84.2338 51.2307V51.2581C84.2338 51.7342 83.7349 51.757 82.4945 51.8898C81.1306 52.0362 79.8261 52.4436 79.8261 54.0272C79.8261 55.4095 80.8376 56.1418 82.1787 56.1418ZM82.6089 54.9243C81.9178 54.9243 81.4235 54.6085 81.4235 53.9998C81.4235 53.3636 81.9773 53.0981 82.7188 52.9928C83.1536 52.9333 84.0232 52.8235 84.2384 52.6496V53.478C84.2384 54.2607 83.6067 54.9243 82.6089 54.9243Z" fill="#9A9D9A"/>
<path d="M92.207 48.9696H87.5567V55.9999H89.177V50.329H92.207V48.9696Z" fill="#9A9D9A"/>
<path d="M95.269 56.1418C96.372 56.1418 97.0311 55.6246 97.3332 55.0342H97.3881V55.9999H98.9809V51.2948C98.9809 49.4365 97.4659 48.8781 96.1249 48.8781C94.6465 48.8781 93.5114 49.5372 93.1452 50.8188L94.6923 51.0385C94.857 50.5579 95.3239 50.1459 96.134 50.1459C96.903 50.1459 97.3241 50.5396 97.3241 51.2307V51.2581C97.3241 51.7342 96.8252 51.757 95.5848 51.8898C94.2208 52.0362 92.9164 52.4436 92.9164 54.0272C92.9164 55.4095 93.9279 56.1418 95.269 56.1418ZM95.6992 54.9243C95.0081 54.9243 94.5138 54.6085 94.5138 53.9998C94.5138 53.3636 95.0676 53.0981 95.8091 52.9928C96.2439 52.9333 97.1135 52.8235 97.3286 52.6496V53.478C97.3286 54.2607 96.697 54.9243 95.6992 54.9243Z" fill="#9A9D9A"/>
<path d="M100.258 54.073C100.299 55.3775 101.494 56.1372 103.119 56.1372C104.785 56.1372 105.988 55.3454 105.988 54.0501C105.988 53.1027 105.343 52.4528 104.51 52.4024V52.3292C105.316 52.1141 105.828 51.6106 105.828 50.8508C105.828 49.6653 104.803 48.8781 103.155 48.8781C101.617 48.8781 100.459 49.6745 100.436 50.9011H102.07C102.089 50.4297 102.574 50.1002 103.233 50.1002C103.892 50.1002 104.29 50.4526 104.29 50.9744C104.29 51.455 103.924 51.812 103.238 51.812H102.162V52.9883H103.238C103.929 52.9883 104.382 53.3773 104.382 53.9449C104.382 54.5856 103.819 54.8969 103.109 54.8969C102.409 54.8969 101.933 54.5948 101.901 54.073H100.258Z" fill="#9A9D9A"/>
<path d="M108.89 53.7572V48.9696H107.293V55.9999H109L111.806 51.2078V55.9999H113.408V48.9696H111.705L108.89 53.7572Z" fill="#9A9D9A"/>
<path d="M116.707 48.9696H115.109V55.9999H116.707V53.1576H119.43V55.9999H121.023V48.9696H119.43V51.7982H116.707V48.9696Z" fill="#9A9D9A"/>
<path d="M129.667 46.6262V53.2171C129.663 54.2058 129.205 54.7321 128.39 54.7321C127.631 54.7321 127.123 54.2698 127.109 53.5101H125.42C125.42 55.2402 126.683 56.1281 128.326 56.1281C130.134 56.1281 131.347 55.0296 131.352 53.2171V46.6262H129.667Z" fill="#FF3300"/>
<path d="M133.194 56H136.988C139.135 56 140.188 54.906 140.188 53.446C140.188 52.0271 139.181 51.1941 138.183 51.1437V51.0522C139.098 50.8371 139.822 50.1963 139.822 49.0566C139.822 47.6606 138.815 46.6262 136.782 46.6262H133.194V56ZM134.892 54.5811V51.8349H136.764C137.812 51.8349 138.462 52.4757 138.462 53.3132C138.462 54.0593 137.95 54.5811 136.718 54.5811H134.892ZM134.892 50.6128V48.0268H136.608C137.606 48.0268 138.123 48.5531 138.123 49.2763C138.123 50.1002 137.455 50.6128 136.572 50.6128H134.892Z" fill="#FF3300"/>
<path d="M141.665 56H147.491V54.5765H143.363V46.6262H141.665V56Z" fill="#FF3300"/>
<defs>
<clipPath id="clip0">
<rect width="44" height="46" fill="white" transform="translate(12 16)"/>
</clipPath>
</defs>
</svg>
