<svg width="64" height="64" viewBox="0 0 64 64" fill="none" xmlns="http://www.w3.org/2000/svg">
<g opacity="0.8">
<g opacity="0.4">
<path opacity="0.4" d="M38.4481 14.6398C37.1786 14.4053 36.0127 15.2154 35.7711 16.4545C35.5294 17.6937 36.3421 18.9035 37.577 19.146C41.295 19.8708 44.1659 22.7489 44.8935 26.4796V26.4823C45.1007 27.5562 46.0461 28.337 47.135 28.337C47.281 28.337 47.4271 28.3237 47.5758 28.2971C48.8107 28.0492 49.6234 26.8421 49.3817 25.6002C48.2955 20.0281 44.0065 15.7244 38.4481 14.6398Z" fill="#0073AE"/>
<path opacity="0.4" d="M38.2829 5.35464C37.688 5.26937 37.0905 5.44525 36.6151 5.82365C36.1265 6.20739 35.821 6.76168 35.7547 7.38258C35.6139 8.63772 36.5195 9.77294 37.773 9.91418C46.4174 10.8788 53.1365 17.6129 54.1085 26.2843C54.2386 27.4461 55.2132 28.3229 56.3765 28.3229C56.4641 28.3229 56.5491 28.3175 56.6367 28.3069C57.2449 28.2403 57.7867 27.9391 58.1691 27.4595C58.5489 26.9798 58.7215 26.3829 58.6524 25.7726C57.4414 14.9534 49.0679 6.55648 38.2829 5.35464Z" fill="#0073AE"/>
</g>
</g>
<path fill-rule="evenodd" clip-rule="evenodd" d="M29.4177 34.5928C40.0552 45.2274 42.4684 32.9243 49.2414 39.6926C55.7711 46.2204 59.524 47.5283 51.251 55.799C50.2147 56.6318 43.6306 66.6511 20.492 43.5189C-2.6496 20.3838 7.3639 13.7929 8.19693 12.757C16.49 4.46334 17.7753 8.23811 24.305 14.766C31.078 21.5371 18.7801 23.9582 29.4177 34.5928Z" fill="#0073AE"/>
</svg>
