<svg width="168" height="77" viewBox="0 0 168 77" fill="none" xmlns="http://www.w3.org/2000/svg">
<g clip-path="url(#clip0)">
<path d="M19.0236 43.113C19.2314 43.6314 19.1655 44.2959 19.0642 44.6985C18.8868 45.4133 18.4004 46.1431 16.9613 46.1431C15.6135 46.1431 14.7926 45.368 14.7926 44.2002V42.1214H9.00098V43.7724C9.00098 48.5542 12.7861 49.9988 16.8448 49.9988C20.7464 49.9988 23.9589 48.68 24.4707 45.1012C24.7342 43.2489 24.5416 42.0358 24.4504 41.5878C23.5384 37.0979 15.35 35.759 14.7369 33.2473C14.6517 32.8769 14.6448 32.493 14.7166 32.1198C14.8686 31.4302 15.3399 30.6802 16.6877 30.6802C17.9545 30.6802 18.6892 31.4554 18.6892 32.6232V33.952H24.0755V32.442C24.0755 27.7709 19.8546 27.041 16.8042 27.041C12.9634 27.041 9.82691 28.3044 9.25433 31.8027C9.10232 32.7591 9.07698 33.6148 9.305 34.6919C10.2424 39.0711 17.9089 40.3395 19.0236 43.113" fill="#034EA2"/>
<path d="M88.4557 43.072C88.6635 43.5904 88.5976 44.2548 88.4963 44.6575C88.3189 45.3723 87.8325 46.1021 86.3934 46.1021C85.0456 46.1021 84.2247 45.327 84.2247 44.1592V42.0804H78.4331V43.7314C78.4331 48.5132 82.2182 49.9578 86.2769 49.9578C90.1785 49.9578 93.391 48.639 93.9028 45.0602C94.1663 43.2079 93.9738 41.9948 93.8826 41.5468C92.9705 37.0569 84.7821 35.718 84.169 33.2063C84.0839 32.8359 84.077 32.452 84.1487 32.0788C84.3008 31.3892 84.772 30.6392 86.1198 30.6392C87.3866 30.6392 88.1213 31.4144 88.1213 32.5822V33.911H93.5076V32.4009C93.5076 27.7299 89.2867 27 86.2364 27C82.3955 27 79.259 28.2634 78.6865 31.7617C78.5344 32.7181 78.5091 33.5738 78.7371 34.6509C79.6745 39.0301 87.341 40.2985 88.4557 43.072" fill="#034EA2"/>
<path d="M32.1065 27.7255L28.1035 49.1632H33.9357L36.8898 29.7087H37.0114L39.8844 49.1632H45.6862L41.7086 27.7205L32.1065 27.7255ZM64.713 27.7255L62.0528 44.1146H61.9261L59.271 27.7255H50.4695L49.9932 49.1632H55.3947L55.5264 29.8899H55.648L59.2507 49.1632H64.7282L68.3359 29.8949H68.4525L68.5893 49.1632H73.9857L73.5094 27.7205L64.713 27.7255Z" fill="#034EA2"/>
<path d="M107.302 45.9518C108.801 45.9518 109.263 44.925 109.369 44.4015C109.415 44.1699 109.42 43.8579 109.42 43.581V27.7255H114.882V43.0928C114.883 43.563 114.866 44.0332 114.831 44.5021C114.451 48.5038 111.269 49.8024 107.302 49.8024C103.329 49.8024 100.147 48.5038 99.7669 44.5021C99.7517 44.2907 99.7112 43.4854 99.7163 43.0928V27.7205H105.179V43.576C105.173 43.8579 105.184 44.1699 105.229 44.4015C105.331 44.925 105.797 45.9518 107.302 45.9518ZM133.691 27.7255L133.985 44.5525H133.868L128.903 27.7255H120.897V48.9367H126.202L125.908 31.5258H126.024L131.35 48.9367H139.037V27.7255H133.691ZM152.312 45.7303C153.873 45.7303 154.42 44.7488 154.516 44.1699C154.562 43.9334 154.567 43.6313 154.567 43.3646V40.2438H152.353V37.123H159.999V42.8713C159.999 43.274 159.989 43.5659 159.923 44.2807C159.568 48.1867 156.158 49.5809 152.333 49.5809C148.507 49.5809 145.102 48.1867 144.742 44.2807C144.681 43.5659 144.666 43.274 144.666 42.8713V33.8513C144.666 33.4687 144.717 32.7942 144.757 32.4419C145.239 28.4302 148.507 27.1416 152.333 27.1416C156.158 27.1416 159.513 28.4201 159.908 32.4368C159.979 33.1214 159.959 33.8462 159.959 33.8462V34.566H154.516V33.363C154.516 33.363 154.516 32.8597 154.451 32.5476C154.349 32.0744 153.944 30.9872 152.292 30.9872C150.721 30.9872 150.26 32.0191 150.144 32.5476C150.078 32.8295 150.052 33.212 150.052 33.5593V43.3595C150.052 43.6313 150.063 43.9334 150.103 44.175C150.204 44.7488 150.752 45.7303 152.312 45.7303" fill="#034EA2"/>
</g>
<defs>
<clipPath id="clip0">
<rect width="151" height="23" fill="white" transform="translate(9 27)"/>
</clipPath>
</defs>
</svg>
