<svg width="24" height="24" viewBox="0 0 24 24" fill="none" xmlns="http://www.w3.org/2000/svg">
<path d="M19.75 11.4375C19.753 12.5924 19.4832 13.7317 18.9625 14.7625C18.3451 15.9978 17.396 17.0368 16.2215 17.7631C15.047 18.4895 13.6935 18.8745 12.3125 18.875C11.1576 18.878 10.0184 18.6082 8.9875 18.0875L4 19.75L5.6625 14.7625C5.14181 13.7317 4.87199 12.5924 4.875 11.4375C4.87553 10.0566 5.26054 8.70302 5.98688 7.52851C6.71322 6.35399 7.75222 5.4049 8.9875 4.78752C10.0184 4.26684 11.1576 3.99701 12.3125 4.00002H12.75C14.5738 4.10064 16.2964 4.87044 17.588 6.16203C18.8796 7.45361 19.6494 9.17622 19.75 11V11.4375Z" fill="white"/>
</svg>
