<svg width="31" height="30" viewBox="0 0 31 30" fill="none" xmlns="http://www.w3.org/2000/svg">
<g opacity="0.7">
<g clip-path="url(#clip0)">
<path fill-rule="evenodd" clip-rule="evenodd" d="M0.848389 0V29.9242H30.7726V0H0.848389ZM23.2816 16.5555C23.9685 17.2256 24.6949 17.8566 25.3115 18.5975C25.5839 18.9249 25.8416 19.2626 26.0379 19.6419C26.3167 20.1854 26.064 20.7809 25.5785 20.8137L22.5615 20.8124C21.7827 20.8764 21.1621 20.5624 20.6388 20.0296C20.2226 19.6054 19.8336 19.1514 19.4318 18.7128C19.2683 18.5322 19.0954 18.3633 18.8899 18.2286C18.4778 17.9615 18.1203 18.0426 17.8847 18.4719C17.6451 18.9091 17.5888 19.3946 17.5667 19.8816C17.5339 20.5923 17.3194 20.7783 16.606 20.8125C15.0797 20.8832 13.6321 20.6513 12.2878 19.8829C11.1006 19.205 10.1818 18.2467 9.38192 17.163C7.8231 15.0503 6.62922 12.7309 5.55728 10.3447C5.31499 9.80692 5.49197 9.51873 6.08335 9.50834C7.06921 9.48887 8.05467 9.49124 9.03914 9.50702C9.4396 9.51373 9.7053 9.7426 9.85847 10.1209C10.3913 11.4301 11.0429 12.676 11.861 13.832C12.0798 14.1396 12.3023 14.4458 12.6175 14.663C12.967 14.9039 13.2341 14.8252 13.3989 14.4338C13.5038 14.1852 13.5497 13.9208 13.5718 13.655C13.6502 12.7453 13.6596 11.8345 13.5246 10.9275C13.4408 10.3605 13.1202 9.9939 12.5549 9.8867C12.2667 9.83172 12.3099 9.72583 12.4487 9.56062C12.6923 9.27684 12.9215 9.09985 13.3755 9.09985H16.7854C17.3231 9.20475 17.4438 9.44698 17.5168 9.98752L17.5195 13.777C17.5132 13.9864 17.6244 14.6066 18 14.744C18.3009 14.8435 18.5013 14.6012 18.6819 14.4103C19.4985 13.5437 20.0812 12.519 20.6019 11.4588C20.8324 10.9927 21.0315 10.5085 21.2252 10.024C21.3679 9.66539 21.5904 9.4888 21.9949 9.49518L25.2777 9.4992C25.3745 9.4992 25.4741 9.4992 25.5696 9.51491C26.1218 9.61041 26.2736 9.84868 26.1021 10.3892C25.834 11.2359 25.3089 11.9429 24.7972 12.651C24.2487 13.4089 23.665 14.1404 23.1205 14.9024C22.6232 15.6001 22.6624 15.9509 23.2816 16.5555Z" fill="white"/>
</g>
</g>
<defs>
<clipPath id="clip0">
<rect x="0.848389" width="29.9242" height="29.9242" rx="1.87026" fill="white"/>
</clipPath>
</defs>
</svg>
